<?xml version="1.0" encoding="UTF-8"?>
<!-- Created with Inkscape (http://www.inkscape.org/) -->
<svg width="260.14" height="642.26" version="1.1" viewBox="0 0 260.14 642.26" xml:space="preserve" xmlns="http://www.w3.org/2000/svg"><g transform="matrix(1.3333 0 0 -1.3333 0 748.71)"><path d="m117.2 492.05c1.57-4.432-12.24-10.122-27.75-10.122-15.5 0-30.51 6.138-28.04 10.141 2.26 3.654 12.45 1.015 27.95 1.015 15.51 0 25.71 4.962 27.84-1.034" fill="#222"/><path d="m67.945 493.55c-3.21 0-5.33-0.398-6.15-1.721-0.28-0.453-0.27-0.944 0.05-1.5 2-3.598 14.77-7.944 27.6-7.944 12.89 0 24.31 3.918 26.9 7.578 0.49 0.69 0.63 1.341 0.42 1.934-1.23 3.462-5.53 2.89-12.63 1.941-4.05-0.539-9.09-1.211-14.78-1.211-5.3 0-9.89 0.301-13.94 0.568-2.89 0.19-5.4 0.355-7.47 0.355zm21.5-12.079c-13.35 0-26.23 4.522-28.4 8.413-0.48 0.847-0.48 1.685-0.03 2.424 1.63 2.642 6.46 2.325 14.46 1.799 4.04-0.265 8.61-0.566 13.88-0.566 5.63 0 10.63 0.667 14.65 1.203 7.31 0.975 12.14 1.618 13.62-2.541 0.31-0.877 0.12-1.834-0.54-2.768-2.7-3.83-14.04-7.964-27.64-7.964" fill="#222"/><path d="m99.665 504.4c-0.13-11.328-3.89-19.729 16.95-29.534-12.4-17.062-24.62-23.366-24.62-23.366s-26.13 11.762-35.11 19.545c4.67 3.399 9.55 5.939 13.86 8.966 8.51 5.982 3.49 19.272 5.15 24.179l23.77 0.21" fill="#fda98b"/><path d="m103.52 543.08c-10.09 14.108-33.89 10.544-36.66-11.104-2.75-21.473 7.64-38.382 13.68-40.035 5.47-1.499 10.87-2.16 15.44 0.933 12.01 8.124 16.64 37.477 7.54 50.206" fill="#fda98b"/><path d="m74.055 557.46c-16.01-12.765-11.13-21.056-7-41.033-1.67 10.821 10.98 28.125 8.87 23.726-6.67-13.916 3.07-0.87 17.27-6.794 1-0.417 1.8-0.232 5.79 0.928 4.13 1.197 9.05-15.049 9.05-15.049 4.23 7.056 4.73 19.135 4.73 19.135-1.31 23.671-30.71 27.654-32.72 18.875-1.24 0.05-4.12 1.701-5.99 0.212" fill="#7b3b23"/><g fill="#682c1c"><path d="m80.335 556.91c0.27-0.014 0.49-0.248 0.47-0.524-0.06-1.226 0.03-5.516 3.72-9.216 0.2-0.195 0.2-0.512 0-0.706-1.61-1.609-6.75 10.551-4.19 10.446"/><path d="m68.855 541.36c-1.22 0.191 0.88 8.649 7.78 12.873 0.56 0.345 1.08-0.507 0.52-0.852-4.1-2.512-6.99-6.85-7.73-11.603-0.04-0.268-0.29-0.459-0.57-0.418"/><path d="m76.555 542.1c0.45 0.26 1.97 2.138 1.28 4.581-0.17 0.636 0.79 0.903 0.97 0.269 0.8-2.886-0.9-5.225-1.75-5.714-0.57-0.33-1.07 0.534-0.5 0.864"/><path d="m66.695 530.3c-1.43 5.918-1.84 6.151-1.14 6.346 0.79 0.216 0.88-1.035 2.11-6.111 0.16-0.642-0.81-0.877-0.97-0.235"/><path d="m95.715 555.38c-2.69 2.639-8.65 4.086-12.01 1.926-0.24-0.149-0.55-0.082-0.69 0.15-1.01 1.565 8.12 3.808 13.4-1.363 0.47-0.463-0.23-1.176-0.7-0.713"/><path d="m97.915 547.05c-3.39 3.535-8.19 2.426-10.59 0.819-0.23-0.153-0.54-0.092-0.69 0.137-0.75 1.125 7.09 4.857 12-0.265 0.46-0.476-0.26-1.168-0.72-0.691"/><path d="m87.065 554.5c4.2 1.097 3.85-1.79 2.76-1.12-1.07 0.656-3.64 0.236-4.36-1.063-0.63-1.121-2.24 1.182 1.6 2.183"/><path d="m93.165 535.02c0.68 2.215-0.42 5.058-2.36 6.085-0.58 0.31-0.11 1.191 0.47 0.882 2.37-1.255 3.66-4.58 2.84-7.261-0.2-0.631-1.15-0.337-0.95 0.294"/><path d="m78.855 535.92c0 3.468 5.44 7.872 5.81 6.133 0.06-0.269-0.11-0.534-0.39-0.592-1.64-0.346-4.42-3.553-4.42-5.541 0-0.661-1-0.661-1 0"/><path d="m100.1 535.76c1.46 1.944 2.64 4.253 1.31 7.959-0.22 0.619 0.71 0.96 0.94 0.337 1.49-4.163 0.1-6.834-1.46-8.897-0.39-0.527-1.19 0.075-0.79 0.601"/><path d="m107.98 530.19c-1 0.375-0.03 0.25 1.34 5.954 0.16 0.643 1.13 0.408 0.97-0.234-0.22-0.909-1.43-6.05-2.31-5.72"/><path d="m109.5 542.71c-0.5 3.093-2.95 7.348-6.02 8.828-0.25 0.119-0.35 0.418-0.23 0.666 1.3 2.691 9.22-9.513 6.83-9.906-0.28-0.043-0.53 0.143-0.58 0.412"/></g><path d="m64.395 522.38c4.11 1.206 4.36-7.384 4.37-11.647 0.02-8.405-10.83 9.748-4.37 11.647" fill="#fda98b"/><path d="m65.275 518.18c0.12 0.393 0.71 0.207 0.59-0.181-0.72-2.362-0.01-3.746 0.96-4.28 0.15-0.082 0.21-0.27 0.13-0.419-0.55-0.993-2.72 1.502-1.68 4.88" fill="#ee795c"/><path d="m110.18 522.5c-4.1 1.205-4.36-7.384-4.37-11.647-0.02-8.405 10.84 9.747 4.37 11.647" fill="#fda98b"/><path d="m109.32 518.3c-0.12 0.392-0.71 0.207-0.59-0.181 0.72-2.362 0-3.747-0.97-4.28-0.15-0.082-0.2-0.27-0.12-0.419 0.55-0.993 2.71 1.502 1.68 4.88" fill="#ee795c"/><path d="m77.805 518.75c-1.34 0-2.4 5.11 0.86 5.11 1.74 0 1.34-5.11-0.86-5.11" fill="#382823"/><path d="m97.765 518.55c1.34 0 2.39 5.109-0.87 5.109-1.74 0-1.33-5.109 0.87-5.109" fill="#382823"/><path d="m76.035 495.26c0.17 0.13 0.41 0.098 0.54-0.069 3.53-4.571 15.96-6.123 21.94 0.401 0.34 0.376 0.91-0.145 0.56-0.519-8.81-9.632-25.25-1.518-23.04 0.187" fill="#ee795c"/><path d="m82.215 529.01c-4.41 1.757-13.07-1.882-10.61-2.816 0.81-0.305 3.38 0.72 4.31 0.822 1.88 0.205 5.32-0.609 6.49 0.409 0.48 0.419 0.37 1.36-0.19 1.585" fill="#7b3b23"/><path d="m92.205 527.55c1.13-1.059 4.59-0.365 6.46-0.636 0.94-0.135 3.46-1.249 4.28-0.973 2.5 0.847-6.04 4.832-10.5 3.186-0.63-0.233-0.71-1.142-0.24-1.577" fill="#7b3b23"/><path d="m85.545 510.43c-0.14 0.567 0.82 0.619 1.43 0.754 2.21 0.495 2.31-0.592 1.28 8.716-0.2 1.817-0.5 2.793 0.14 2.843 0.62 0.039 0.45-0.682 0.68-2.753 1.12-10.11 1.14-8.868-3.04-9.865-0.22-0.052-0.44 0.081-0.49 0.305" fill="#ee795c"/><path d="m81.765 502.51c-0.62 0.929 1.22 0.697 12.09 1.828 2.79 0.29-6.86-9.602-12.09-1.828" fill="#fff5ed"/><path d="m124.64 99.708c3.76-2.8961 7.87-3.6332 13.18-0.5738l-0.75 26.053-16.81-0.473 4.38-25.006" fill="#fda98b"/><path d="m140.04 83.234c-1.75-1.2762-1.5-0.925-39.57-2.7352-7.62-0.3621-7.95 3.5699-4.01 6.0242 6.01 3.7348 27.71 15.749 29.09 14.939 1.16-0.6809 3.93-2.1789 6.04-2.2168 2.84-0.0512 6.38 0.507 6.62 0.0598 2.58-4.7008 6.17-12.916 1.83-16.071" fill="#f2e8de"/><path d="m125.24 101.03c-1.99 0-21.58-10.624-28.52-14.936-1.63-1.0187-2.49-2.316-2.18-3.3027 0.4-1.2832 2.61-1.9492 5.91-1.7973 8.41 0.4012 14.95 0.6954 20.05 0.9243 17.84 0.8031 18.01 0.8187 19.25 1.716 4 2.914 0.55 10.791-1.91 15.31-0.38 0.0782-1.61-0.0019-2.6-0.0648-1.15-0.0738-2.46-0.1559-3.66-0.1379-2.16 0.0391-4.86 1.4488-6.28 2.2859-0.02 2e-3 -0.04 3e-3 -0.06 3e-3zm-25.69-21.057c-3.31 0-5.46 0.9-5.97 2.52-0.45 1.4589 0.55 3.1629 2.62 4.45 3.1 1.9281 27.64 16.103 29.6 14.946 1.08-0.634 3.8-2.1122 5.79-2.1481 1.17-0.0199 2.45 0.0621 3.59 0.1348 2.42 0.1562 3.19 0.1801 3.47-0.3348 2.63-4.7883 6.34-13.326 1.68-16.716-1.48-1.082-1.48-1.082-19.78-1.9063-5.11-0.2289-11.64-0.5226-20.05-0.9226-0.33-0.0152-0.64-0.0231-0.95-0.0231" fill="#fffffb"/><path d="m141.8 90.302c1.41-6.6961-2.36-7.6949-4.74-8.05-1-0.148-39.55-3.0761-41.86-1.0281-0.37 0.3238-1.3 1.082-1.2 2.2129l47.8 6.8652" fill="#f2e8de"/><path d="m141.86 90.313c0.3-1.1199 0.54-2.284 0.48-3.4871-0.05-1.1809-0.4-2.4801-1.32-3.4149-0.9-0.9461-2.16-1.3902-3.33-1.65-1.24-0.2461-2.34-0.307-3.51-0.4539-4.61-0.4824-9.24-0.7754-13.86-1.1004-4.64-0.1816-9.27-0.4109-13.92-0.3687-2.32 0.0379-4.64 0.0789-6.97 0.2621-1.17 0.1168-2.33 0.2308-3.5 0.5457l-0.44 0.1512c-0.15 0.0629-0.31 0.1769-0.44 0.2691-0.21 0.2-0.43 0.4188-0.61 0.6637-0.36 0.4851-0.58 1.1172-0.48 1.7113l0.1-9e-3c-0.05-0.5683 0.19-1.1242 0.56-1.5543 0.18-0.2199 0.39-0.4117 0.61-0.6008 0.12-0.0691 0.24-0.1429 0.37-0.1929l0.41-0.118c1.12-0.2371 2.29-0.2902 3.44-0.3402 2.31-0.0918 4.62-0.0571 6.94-0.0129 4.63 0.1058 9.25 0.3301 13.87 0.5918 4.63 0.25 9.25 0.5402 13.86 0.8781 1.15 0.1039 2.32 0.1332 3.45 0.323 1.12 0.2071 2.26 0.5829 3.09 1.3879 0.85 0.7762 1.24 1.9352 1.35 3.0653 0.11 1.1457-0.04 2.3008-0.25 3.4328l0.1 0.0211" fill="#fffffb"/><path d="m116.72 96.812c1.31-1.7371 3.1-3.1059 5.12-3.9137l-5.12 3.9137" fill="#f2e8de"/><path d="m121.64 92.434c-2.12 0.8468-3.96 2.2578-5.33 4.0769l0.8 0.6008c1.26-1.673 2.95-2.9699 4.9-3.7508l-0.37-0.9269" fill="#fffffb"/><path d="m112.96 94.551c-0.1-1.5418 2.99-3.4391 4.43-4.084l-4.43 4.084" fill="#f2e8de"/><path d="m117.2 90.011c-0.05 0.0207-4.87 2.2481-4.73 4.5707l1-0.0617c-0.07-1.0512 2.36-2.8031 4.14-3.5973l-0.41-0.9117" fill="#fffffb"/><path d="m108.98 92.271c0.86-2.1109 3.19-3.0711 4.86-3.7758l-4.86 3.7758" fill="#f2e8de"/><path d="m113.64 88.034c-1.82 0.7699-4.21 1.7789-5.13 4.0488l0.93 0.375c0.76-1.8859 2.93-2.802 4.51-3.4699l-0.12-0.493-0.19-0.4609" fill="#fffffb"/><path d="m98.125 86.335c0.75-3.434 5.76-2.8969 9.27-2.9l-9.27 2.9" fill="#f2e8de"/><path d="m104.74 82.906c-3.13 0-6.46 0.336-7.11 3.3231l0.98 0.2129c0.57-2.6328 4.24-2.5731 7.49-2.5211 0.45 0.0082 0.91 0.025 1.29 0.0141v-1c-0.41 0.014-0.83-0.0071-1.27-0.0141-0.45-0.0078-0.92-0.0149-1.38-0.0149" fill="#fffffb"/><path d="m62.455 90.516c0.31-1.1203 0.54-2.2832 0.49-3.4871-0.05-1.1813-0.4-2.4801-1.32-3.4152-0.91-0.9457-2.17-1.3887-3.34-1.65-1.24-0.2457-2.34-0.3071-3.5-0.4539-4.62-0.4821-9.24-0.775-13.87-1.1-4.63-0.1821-9.27-0.411-13.91-0.3692-2.33 0.0383-4.65 0.0793-6.98 0.2621-1.17 0.1172-2.33 0.2321-3.5 0.5461l-0.44 0.152c-0.14 0.0621-0.31 0.1761-0.44 0.2679-0.21 0.2012-0.43 0.4192-0.61 0.6653-0.36 0.484-0.58 1.116-0.47 1.7097l0.1-0.0089c-0.06-0.5668 0.18-1.1239 0.55-1.554 0.18-0.2199 0.4-0.4121 0.62-0.6011 0.12-0.0688 0.23-0.143 0.36-0.193l0.41-0.1168c1.12-0.2379 2.29-0.291 3.44-0.341 2.31-0.0922 4.63-0.057 6.94-0.0121 4.63 0.1051 9.25 0.3301 13.88 0.591 4.62 0.25 9.24 0.5398 13.86 0.8781 1.15 0.1039 2.32 0.134 3.45 0.3239 1.12 0.2082 2.26 0.5832 3.08 1.3871 0.85 0.7781 1.24 1.9351 1.36 3.0648 0.11 1.1461-0.04 2.3012-0.26 3.4332l0.1 0.0211" fill="#fff"/><path d="m45.005 100.05 13.31-1.275 2.38 24.733-16.28-0.4582 0.59-23" fill="#fda98b"/><path d="m60.645 83.437c-1.75-1.2758-1.5-0.925-39.56-2.7348-7.62-0.3621-7.96 3.57-4.02 6.0239 6.01 3.7359 27.72 15.749 29.09 14.939 3.9-2.2941 5.88-2.6699 12-1.8191 1 0.1391 7.74-12.588 2.49-16.409" fill="#f2e8de"/><path d="m45.855 101.24c-2 0-21.59-10.624-28.52-14.936-1.64-1.0192-2.5-2.316-2.19-3.3032 0.4-1.2828 2.61-1.9488 5.91-1.7968 8.41 0.4011 14.95 0.6949 20.05 0.9242 17.84 0.8027 18.02 0.8187 19.25 1.716l0.29-0.4043-0.29 0.4043c1.29 0.9398 1.88 2.5867 1.75 4.8949-0.25 4.6071-3.21 9.9598-4.01 10.598-5.97-0.825-8.15-0.4762-12.19 1.9008-0.02 1e-3 -0.03 2e-3 -0.05 2e-3zm-25.69-21.057c-3.31 0-5.47 0.9-5.98 2.5199-0.45 1.4594 0.55 3.1633 2.62 4.4512 3.1 1.9269 27.64 16.102 29.61 14.945 3.65-2.15 5.52-2.6109 11.67-1.7547 1.28 0.1887 3.35-4.9262 3.44-5.1441 1.1-2.7282 3.25-9.375-0.58-12.165-1.49-1.082-1.49-1.082-19.79-1.9058-5.1-0.2289-11.64-0.5231-20.05-0.9231-0.32-0.0148-0.64-0.023-0.94-0.023" fill="#fffffb"/><g fill="#fff"><path d="m42.435 92.601c-0.06 0-0.13 0.0109-0.19 0.0359-2.11 0.8481-3.96 2.2582-5.33 4.0781-0.16 0.2211-0.12 0.534 0.1 0.7 0.22 0.1649 0.54 0.1239 0.7-0.098 1.26-1.6738 2.96-2.9719 4.9-3.752 0.26-0.1031 0.39-0.3941 0.28-0.65-0.08-0.1949-0.26-0.314-0.46-0.314"/><path d="m37.995 90.17c-0.06 0-0.13 0.0141-0.2 0.0438-0.05 0.0211-4.87 2.2492-4.73 4.5711 0.02 0.2761 0.26 0.4949 0.53 0.4691 0.28-0.0172 0.49-0.2539 0.47-0.5289-0.06-1.0524 2.37-2.8051 4.14-3.5992 0.25-0.1121 0.36-0.4078 0.25-0.6598-0.08-0.1863-0.27-0.2961-0.46-0.2961"/><path d="m34.245 88.237c-1.82 0.7699-4.21 1.7793-5.13 4.0492-0.1 0.2559 0.02 0.5469 0.28 0.652 0.25 0.1027 0.55-0.0211 0.65-0.277 0.76-1.8851 2.93-2.8011 4.51-3.4691l-0.12-0.4942-0.19-0.4609"/><path d="m25.345 83.11c-3.13 0-6.46 0.3351-7.11 3.3222-0.06 0.2688 0.12 0.536 0.38 0.5949 0.28 0.0571 0.54-0.1132 0.6-0.382 0.57-2.6332 4.25-2.575 7.49-2.5211 0.45 0.0078 0.91 0.0289 1.29 0.0141 0.28 0 0.5-0.225 0.5-0.5 0-0.277-0.22-0.5-0.5-0.5-0.41 0.0148-0.83-0.0071-1.27-0.0141-0.45-0.0082-0.91-0.014-1.38-0.014"/></g><path d="m137.68 370.81c0.11-4.518 6.56-266.12 3.04-266.46-2.57-0.2488-19.74-1.5309-20.31 1.0582-20.42 93.05-29.94 183.94-29.94 183.94-11.3-71.739 1.32-70.666-27.71-182.34-0.59-2.2578-21.04-3.5847-21.03-0.209 0.09 20.982 1.15 275.81 0 257.72 13.37 0.91 95.95 6.289 95.95 6.289" fill="#505050"/><g fill="#222"><path d="m90.565 293.19 0.4-3.794c0.09-0.909 9.75-91.929 29.93-183.89 0.34-1.5289 11.72-1.4309 19.55-0.6898 2.2 6.291-0.36 146.21-3.24 264.96l-0.01 0.497c-6.93-0.452-80.19-5.226-94.73-6.208 0.07-1.479 0.1-4.137 0.14-8.917 0.07-6.235 0.11-15.417 0.13-27.29 0.04-20.191 0.02-48.506-0.06-84.159-0.13-58.815-0.37-119.66-0.45-136.91 0-0.3039 0.54-0.7457 2.07-1.0777 5.63-1.234 17.41 0.1789 17.98 1.4218 18.58 71.497 20.11 97.244 21.73 124.5 0.93 15.723 1.9 31.982 5.96 57.78zm38.95-189.91c-4.74 0-9.25 0.4269-9.59 2.018-17.88 81.427-27.5 162.12-29.54 180.24-3.58-23.613-4.49-39.022-5.38-53.95-1.62-27.308-3.16-53.103-21.77-124.7-0.58-2.2589-12.54-3.0539-17.76-2.3789-2.86 0.3731-4.25 1.125-4.25 2.2981 0.11 25.104 0.98 238.37 0.23 257.2l-0.27-0.019 0.04 0.569c0.06 0.964 0.06 1.424 0.63 1.387 0.28-0.01 0.44-0.015 0.54-0.872 15.16 1.025 94.44 6.189 95.25 6.242l0.52 0.034 0.04-1.538c0.43-17.701 1.91-80.072 2.95-139.48 2.22-126.22 0.58-126.38-0.39-126.47-0.43-0.0406-5.98-0.5687-11.25-0.5687"/><path d="m90.635 298.74c-0.26 0-0.49 0.196-0.52 0.46-2.22 18.812-1.46 30.756-0.9 39.478 0.49 7.494 0.78 12.018-1.29 15.743-0.14 0.252-0.04 0.569 0.21 0.708s0.57 0.049 0.71-0.203c2.21-3.992 1.91-8.63 1.42-16.315-0.56-8.682-1.33-20.571 0.89-39.287 0.03-0.287-0.17-0.546-0.46-0.58-0.02-3e-3 -0.04-4e-3 -0.06-4e-3"/><path d="m59.265 109.04c-0.05 0-0.09 5e-3 -0.13 0.0171-0.28 0.0711-0.45 0.3551-0.38 0.6352 13.35 51.899 17.14 96.395 19.91 128.88 1.83 21.41 3.14 36.878 6.4 46.061 0.1 0.27 0.4 0.415 0.67 0.316 0.27-0.095 0.41-0.394 0.32-0.666-3.22-9.055-4.53-24.467-6.35-45.799-2.77-32.526-6.57-77.072-19.94-129.06-0.06-0.2359-0.27-0.3921-0.5-0.3921"/><path d="m43.725 303.36c-0.16 0-0.32 0.073-0.42 0.212-0.17 0.232-0.12 0.559 0.11 0.729 11.73 8.625 11.76 11.489 11.92 27.382 0.02 1.855 0.04 3.883 0.08 6.115 0 0.285 0.24 0.512 0.52 0.512 0.3-6e-3 0.53-0.243 0.52-0.531-0.04-2.228-0.06-4.254-0.08-6.106-0.15-15.958-0.19-19.278-12.35-28.212-0.09-0.068-0.2-0.101-0.3-0.101"/><path d="m137.42 303.56c-0.02 0-1.97 0.067-1.97 0.067-13.41 0.447-13.42 0.799-13.68 19.229-0.03 2.414-0.07 5.148-0.14 8.243-0.01 0.288 0.22 0.527 0.51 0.534 0.29 0 0.53-0.226 0.53-0.509 0.08-3.1 0.11-5.837 0.15-8.254 0.12-9.023 0.19-13.552 1.74-15.759 1.5-2.127 4.65-2.233 10.92-2.442l1.95-0.066c0.29-0.011 0.52-0.253 0.51-0.54-0.01-0.281-0.24-0.503-0.52-0.503"/><path d="m90.905 291.06c-0.02 0-0.05 1e-3 -0.07 3e-3 -0.31 0.028-0.56 0.242-0.64 0.545-0.66 2.52-3 4.571-5.55 4.876-0.28 0.034-0.49 0.293-0.45 0.579 0.03 0.287 0.29 0.499 0.57 0.456 2.75-0.328 5.2-2.294 6.2-4.892 2.65 5.003 6.6 5.971 9.27 5.235 0.28-0.078 0.44-0.365 0.36-0.642-0.08-0.278-0.36-0.44-0.64-0.364-2.4 0.668-6.03-0.348-8.4-5.379-0.12-0.258-0.37-0.417-0.65-0.417"/></g><path d="m59.025 454.36c1.45-30.264-2.34-122.72-33.19-132.49-44.98-9.149-15.85 31.922-18.15 52.871-1.85 16.826 9.06 31.451 8.12 41.921-2.04 22.883 5.04 33.63 12.9 42.541 4.4 4.986 7.39 9.682 14.69 10.36 6.44 0.598 15.33-9.052 15.63-15.204" fill="#2f8a3b"/><path d="m43.965 469.09c-0.18 0-0.35-8e-3 -0.52-0.024-6.15-0.571-9.18-4.133-12.69-8.257-0.54-0.635-1.1-1.283-1.67-1.936-7.27-8.24-14.85-18.973-12.78-42.166 0.42-4.663-1.4-9.952-3.5-16.077-2.65-7.707-5.65-16.442-4.62-25.833 0.7-6.385-1.48-14.627-3.59-22.599-2.9-10.96-5.89-22.294-0.83-27.657 3.54-3.754 10.73-4.468 21.97-2.18 28.83 9.129 34.59 94.455 32.79 131.98-0.16 3.221-2.92 7.771-6.71 11.064-2.72 2.368-5.55 3.69-7.85 3.69zm-29.29-149.02c-5.41 0-9.25 1.259-11.64 3.786-5.44 5.769-2.51 16.859 0.6 28.6 2.08 7.883 4.24 16.034 3.55 22.234-1.05 9.613 1.99 18.461 4.67 26.266 2.07 6.017 3.85 11.214 3.45 15.664-2.1 23.587 5.62 34.52 13.03 42.916 0.57 0.649 1.12 1.292 1.65 1.923 3.66 4.291 6.81 7.996 13.37 8.605 2.68 0.246 5.93-1.138 9.12-3.907 4.04-3.513 6.88-8.243 7.04-11.771 0.84-17.42-0.2-48.019-4.48-74.037-3.93-23.945-12.17-53.61-29.05-58.952-4.34-0.884-8.1-1.327-11.31-1.327" fill="#222"/><path d="m70.745 480.01c6.16-15.193 30.6-15.26 36.9 0 6.96-0.296 23-5.011 27.27-8 9.85-6.881 18.77-142.13 4.64-152.34-34.39-2.603-63.14-0.621-97.83 3.395-21.32 5.819-1.67 144.91-1.41 145.92 8.3 4.353 31.43 11.356 30.43 11.028" fill="#2f8a3b"/><path d="m40.765 468.65c-0.93-6.043-19.29-139.54 1.09-145.1 34.67-4.009 63.13-5.983 97.52-3.39 4.69 3.665 7.25 23.29 7 53.943-0.35 44.473-6.28 93.678-11.74 97.497-4.17 2.912-19.62 7.466-26.67 7.893-3.08-7.07-10.28-11.405-18.87-11.403-8.51 0.027-15.61 4.349-18.64 11.314-3.12-0.953-22.08-6.84-29.69-10.751zm67.93-150.66c-22.03 0-43.03 1.802-67.03 4.581-22.06 6.014-2.19 145.18-1.83 146.54l0.06 0.212 0.19 0.102c5.57 2.921 25.31 9.827 30 10.89 0 4e-3 0.51 0.171 0.51 0.171l0.02-0.065c0.01 2e-3 -0.01 0.069-0.01 0.069l0.02-0.067c0.24 0.037 0.39 0.041 0.44 5e-3l0.25-0.178-0.03-0.23c3.35-8.024 11.38-10.909 17.81-10.93h0.07c6.5 0 14.63 2.917 18.02 11.111l0.13 0.324 0.35-0.015c6.99-0.298 23.21-5.061 27.54-8.09 6.35-4.435 11.85-57.408 12.17-98.309 0.15-18.346-0.64-49.866-7.52-54.844l-0.12-0.083-0.14-0.011c-10.76-0.813-20.94-1.183-30.9-1.183" fill="#222"/><path d="m190.72 401.17c1.72-3.763 4.71-13.864 3.69-17.872-0.78-3.019-6.69-21.114-19.89-26.86-13.88-6.037-18.3-23.621-29.73-14.726-6.14 7.784-10.08 24.463-10.08 24.463-6.83 15.563 7.8 7.203 18.77 22.457 2.01 2.796 1.84 4.126-1.06 6.525-26.92 22.261-17.8 76.556-17.8 76.556 15.79 1.679 35.07-30.372 38.83-45.789 2.63-10.789 12.98-15.381 17.27-24.754" fill="#2f8a3b"/><path d="m145.14 342.07c6.62-5.121 10.64-0.988 16.19 4.723 3.53 3.622 7.52 7.728 12.98 10.103 14.03 6.105 19.55 26.323 19.6 26.526 0.96 3.732-1.86 13.616-3.66 17.54-1.84 4.03-4.9 7.245-7.87 10.353-3.89 4.08-7.92 8.299-9.43 14.49-3.89 15.95-22.88 46.499-37.91 45.444-0.73-4.877-7.53-54.858 17.69-75.707 3.07-2.545 3.33-4.161 1.15-7.202-4.88-6.773-10.49-8.986-14.59-10.601-2.81-1.107-4.83-1.906-5.55-3.64-0.65-1.581-0.2-4.035 1.42-7.723 0.07-0.251 3.99-16.679 9.98-24.306zm5.65-3.318c-1.91 0-3.98 0.751-6.31 2.566l-0.09 0.084c-6.15 7.781-10.01 23.973-10.17 24.658-1.74 3.922-2.18 6.545-1.4 8.42 0.87 2.128 3.18 3.037 6.1 4.189 3.99 1.57 9.44 3.72 14.14 10.255 1.87 2.6 1.7 3.639-0.97 5.848-26.83 22.188-18.07 76.478-17.97 77.024l0.06 0.374 0.38 0.04c16.77 1.767 35.81-31.599 39.36-46.167 1.45-5.933 5.38-10.053 9.18-14.038 3.03-3.168 6.15-6.444 8.06-10.627 1.61-3.514 4.81-13.945 3.72-18.204-0.05-0.207-5.71-20.9-20.17-27.195-5.28-2.297-9.2-6.328-12.66-9.883-3.75-3.852-7.14-7.344-11.26-7.344" fill="#222"/><path d="m56.895 473.64c-4.33 4.649-2.03 10.485 7.73 8.583 0.66-0.13 1.3 0.353 1.3 1.029 0.03 2.174-7.23 8.458-3.78 9.002 8.34 1.313 22.59-23.662 27.21-23.662 5.71 0 8.58 12.341 11.97 16.516 1.25 1.532 11.71 13.62 15.31 8.554 1.95-2.753-0.04-5.274 0.95-8.513 0.95-3.137 3.44 3.091 6.17 0.549 3.6-3.34 3.08-9.555 0.01-13.383-10.15-12.633-55.25-11.146-66.87 1.325" fill="#2b7a36"/><path d="m61.145 482.09c-2.67 0-4.61-0.782-5.43-2.259-0.9-1.617-0.31-3.857 1.55-5.846 6-6.447 22.13-10.512 39.25-9.888 12.9 0.473 22.94 3.664 26.86 8.535 2.83 3.526 3.52 9.473 0.04 12.703-1.04 0.969-1.96 0.374-3.26-0.643-0.76-0.597-1.42-1.112-2.1-0.895-0.43 0.135-0.75 0.532-0.95 1.211-0.46 1.503-0.31 2.878-0.19 4.09 0.17 1.543 0.31 2.875-0.69 4.278-0.47 0.661-1.08 0.995-1.87 1.021-0.03 1e-3 -0.06 2e-3 -0.1 2e-3 -3.86 0-10.5-7.094-12.54-9.603-1.1-1.351-2.17-3.647-3.3-6.077-2.32-4.979-4.94-10.623-9.06-10.623-2.03 0-5.09 3.537-9.9 9.307-5.62 6.722-12.6 15.094-17.23 14.361-0.19-0.03-0.43-0.095-0.49-0.237-0.26-0.649 1.29-2.706 2.31-4.067 1.29-1.706 2.39-3.178 2.38-4.209 0-0.459-0.21-0.891-0.57-1.183-0.37-0.303-0.86-0.423-1.33-0.332-1.22 0.238-2.36 0.354-3.38 0.354zm32.21-19.049c-13.69-1e-3 -30.13 3.078-36.82 10.262-2.16 2.317-2.81 5.004-1.7 7.014 1.38 2.481 4.98 3.357 9.88 2.401 0.18-0.036 0.37 9e-3 0.51 0.125 0.07 0.061 0.2 0.197 0.2 0.418 0.01 0.691-1.15 2.235-2.18 3.597-1.56 2.077-2.91 3.871-2.43 5.044 0.19 0.462 0.61 0.748 1.26 0.85 5.2 0.815 12.07-7.432 18.14-14.708 3.68-4.399 7.47-8.948 9.14-8.948 3.48 0 5.96 5.337 8.16 10.045 1.15 2.488 2.25 4.838 3.42 6.286 0.09 0.102 8.35 10.138 13.46 9.969 1.1-0.036 1.99-0.521 2.65-1.441 1.21-1.711 1.04-3.363 0.87-4.962-0.12-1.172-0.25-2.385 0.15-3.695 0.15-0.498 0.29-0.547 0.29-0.548 0.19-0.048 0.81 0.434 1.18 0.728 1.12 0.881 2.81 2.217 4.56 0.59 3.89-3.609 3.17-10.185 0.06-14.062-4.16-5.171-14.22-8.418-27.61-8.908-1.04-0.038-2.11-0.057-3.19-0.057" fill="#222"/><path d="m8.685 319.12c5.04-0.504 11.31 0.105 13.84 1.633-0.41-17.891-0.63-8.463 1-14.858 0.93-3.624 6.75-16.405 4.28-19.05-1.87-2.001-4.11 3.914-5.78 7.399-2.3 4.832-8.88-4.562-1.21-15.137 0.75-1.044 4.92-5.897 1.69-8.63-3.56 2.962-6.49 6.658-8.57 10.788 2.28-7.038 1.31-11.895-0.33-11.536-2.91 0.637-6.62 25.595-2.32 37.592 0.51 1.419 0.29 1.443-2.6 11.799" fill="#ffa988"/><path d="m137.9 349.39-12-4.291-5.38 12.877 12.59 5.626 4.79-14.212" fill="#ffa988"/><path d="m7.055 321.87c6.06-2.031 14.16-1.747 18.78 0 0.77-4.728 0.23-7.083-2.82-9.941-1.46-1.362-18.46-5.958-15.96 9.941" fill="#505050"/><path d="m129.56 345.54c0.98-1 6.74-0.601 11.91 1.546-2.25 3.178-5.18 13.278-7.09 20.615-1.2-0.514-7.67-5.698-9.36-7.059-1.06-0.853 1.41-11.942 4.54-15.102" fill="#505050"/><g fill="#222"><path d="m67.365 329.75c8.07 0 16.66-0.591 25.1-2.363 2.62-0.549 4.92-1.101 6.95-1.588 8.54-2.045 13.7-3.282 26.9-1.117 0.91 0.149 1.68 0.751 2.01 1.569 0.5 1.25 1.12 2.421 1.66 3.454 1.3 2.454 2.32 4.392 1.18 5.961-7.36 10.155-12.16 22.106-14.26 35.521-0.08 0.52-0.37 0.971-0.81 1.27-0.44 0.301-0.97 0.401-1.49 0.289-17.7-3.901-35.74-2.018-55.8 0.642-0.99 0.127-1.9-0.497-2.12-1.457-1.63-6.903-6.33-23.882-14.75-32.418-0.87-0.876-0.99-2.253-0.3-3.274 1.16-1.707 1.99-3.084 2.65-4.19 1.63-2.743 2.07-3.382 3.67-3.248 5.78 0.503 12.4 0.949 19.41 0.949zm46.98-7.209c-5.62 0-9.71 0.98-15.17 2.286-2.02 0.485-4.31 1.034-6.92 1.581-15.64 3.285-31.84 2.472-44.21 1.397-2.29-0.198-3.02 1.035-4.62 3.732-0.66 1.095-1.47 2.458-2.61 4.14-0.97 1.415-0.8 3.324 0.41 4.538 8.47 8.59 13.23 26.624 14.48 31.946 0.35 1.462 1.74 2.422 3.23 2.218 19.96-2.645 37.92-4.521 55.46-0.656 0.78 0.171 1.6 0.011 2.27-0.44 0.66-0.456 1.1-1.146 1.23-1.941 2.08-13.258 6.82-25.064 14.08-35.089 1.5-2.073 0.3-4.363-1.1-7.015-0.56-1.061-1.14-2.158-1.62-3.359-0.46-1.142-1.53-1.978-2.78-2.184-4.97-0.814-8.81-1.154-12.13-1.154"/><path d="m90.565 466.06c-7.78 0-13.26 5.407-18.11 10.192-1.89 1.869-3.68 3.635-5.45 4.911-0.22 0.161-0.27 0.473-0.11 0.697 0.16 0.226 0.48 0.274 0.7 0.113 1.83-1.32 3.64-3.112 5.57-5.01 4.71-4.648 10.03-9.903 17.41-9.903 0.17 0 0.33 2e-3 0.5 7e-3 7.4 0.237 15.74 5.664 25.48 16.592 0.19 0.206 0.5 0.225 0.71 0.04 0.21-0.183 0.22-0.499 0.04-0.706-9.94-11.143-18.5-16.68-26.2-16.925-0.18-6e-3 -0.36-8e-3 -0.54-8e-3"/><path d="m166.26 386.69c-0.16 0-0.31 0.076-0.41 0.218-3.35 4.923-6.32 6.642-9.33 5.406-0.62-0.253-0.92 0.105-0.99 0.221-0.87 1.277 3.27 8.041 6.62 11.49 0.19 0.199 0.51 0.202 0.71 0.011 0.19-0.193 0.2-0.509 0.01-0.707-3.4-3.497-6.15-8.517-6.46-9.987 4.53 1.606 8.02-2.562 10.27-5.871 0.15-0.229 0.09-0.54-0.14-0.695-0.08-0.059-0.18-0.086-0.28-0.086"/></g><g fill="#efbea9"><path d="m84.695 463.7c-4.24 0-2.45 5.348-0.51 5.348 4.04 0 3.21-5.348 0.51-5.348"/><path d="m84.185 468.59c-0.76 0-1.63-1.391-1.63-2.612 0-0.367 0.08-0.884 0.45-1.267 0.36-0.368 0.93-0.555 1.69-0.555 1.12 0 1.82 1.202 1.82 2.315 0 0.579-0.19 1.1-0.53 1.465-0.41 0.434-1.01 0.654-1.8 0.654zm0.51-5.348c-1.02 0-1.8 0.28-2.34 0.83-0.47 0.477-0.72 1.137-0.72 1.906 0 1.597 1.14 3.527 2.55 3.527 1.04 0 1.89-0.327 2.47-0.945 0.5-0.535 0.77-1.277 0.77-2.089 0-1.553-1.04-3.229-2.73-3.229"/><path d="m96.885 464.56c4.24 0 2.45 5.348 0.51 5.348-4.05 0-3.21-5.348-0.51-5.348"/><path d="m97.395 469.45c-0.79 0-1.39-0.22-1.8-0.654-0.34-0.366-0.53-0.886-0.53-1.465 0-1.113 0.7-2.315 1.82-2.315 0.76 0 1.33 0.186 1.69 0.554 0.37 0.383 0.45 0.901 0.45 1.268 0 1.22-0.87 2.612-1.63 2.612zm-0.51-5.348c-1.69 0-2.73 1.676-2.73 3.229 0 0.812 0.27 1.554 0.77 2.089 0.58 0.617 1.43 0.944 2.47 0.944 1.41 0 2.55-1.929 2.55-3.526 0-0.77-0.25-1.429-0.72-1.907-0.54-0.55-1.32-0.829-2.34-0.829"/></g><path d="m85.235 460.39c-2.73-5.902-2.07-41.579-4.2-22.901-1.21 10.566-0.69 12.943-0.33 14.711 3.25 16.023 0.5 17.274 5.17 14.941 1.18-0.586 0.96-3.277-0.64-6.751" fill="#fffffb"/><path d="m96.345 461.08c2.72-5.901 2.07-41.578 4.2-22.9 1.2 10.566 0.69 12.943 0.33 14.711-3.25 16.023-0.5 17.274-5.18 14.94-1.17-0.585-0.95-3.276 0.65-6.751" fill="#fffffb"/></g></svg>
